<svg xmlns="http://www.w3.org/2000/svg" xmlns:xlink="http://www.w3.org/1999/xlink" width="2000" zoomAndPan="magnify" viewBox="0 0 1500 1499.999933" height="2000" preserveAspectRatio="xMidYMid meet" version="1.0"><defs><g/><clipPath id="797c9f2dfd"><path d="M 27.609375 27.609375 L 1472.109375 27.609375 L 1472.109375 1472.109375 L 27.609375 1472.109375 Z M 27.609375 27.609375 " clip-rule="nonzero"/></clipPath><clipPath id="c21994c8d0"><path d="M 750 27.609375 C 351.035156 27.609375 27.609375 351.035156 27.609375 750 C 27.609375 1148.964844 351.035156 1472.390625 750 1472.390625 C 1148.964844 1472.390625 1472.390625 1148.964844 1472.390625 750 C 1472.390625 351.035156 1148.964844 27.609375 750 27.609375 Z M 750 27.609375 " clip-rule="nonzero"/></clipPath><clipPath id="8609b18aca"><rect x="0" width="602" y="0" height="1105"/></clipPath><clipPath id="50e0ad16ce"><rect x="0" width="602" y="0" height="1105"/></clipPath></defs><g clip-path="url(#797c9f2dfd)"><g clip-path="url(#c21994c8d0)"><path stroke-linecap="butt" transform="matrix(0.75, 0, 0, 0.75, 27.608133, 27.608415)" fill="none" stroke-linejoin="miter" d="M 963.189238 0.00127992 C 431.236068 0.00127992 0.0016555 431.235692 0.0016555 963.188863 C 0.0016555 1495.142034 431.236068 1926.376446 963.189238 1926.376446 C 1495.142409 1926.376446 1926.376821 1495.142034 1926.376821 963.188863 C 1926.376821 431.235692 1495.142409 0.00127992 963.189238 0.00127992 Z M 963.189238 0.00127992 " stroke="#62a2dd" stroke-width="106" stroke-opacity="1" stroke-miterlimit="4"/></g></g><g transform="matrix(1, 0, 0, 1, 200, 112)"><g clip-path="url(#8609b18aca)"><g fill="#62a2dd" fill-opacity="1"><g transform="translate(1.093634, 871.611472)"><g><path d="M 557.046875 -267.6875 L 555.953125 -268.765625 C 560.285156 -268.765625 563.71875 -266.957031 566.25 -263.34375 C 568.78125 -259.726562 569.320312 -255.753906 567.875 -251.421875 C 563.539062 -237.691406 555.773438 -218.003906 544.578125 -192.359375 C 533.378906 -166.710938 518.566406 -139.078125 500.140625 -109.453125 C 481.722656 -79.835938 459.507812 -51.484375 433.5 -24.390625 C 407.488281 2.703125 376.960938 24.921875 341.921875 42.265625 C 306.878906 59.609375 267.320312 68.28125 223.25 68.28125 C 179.175781 68.28125 144.316406 58.164062 118.671875 37.9375 C 93.023438 17.707031 75.320312 -9.566406 65.5625 -43.890625 C 55.8125 -78.210938 52.921875 -116.863281 56.890625 -159.84375 C 60.867188 -202.832031 70.804688 -247.265625 86.703125 -293.140625 C 102.597656 -339.023438 123.1875 -383.460938 148.46875 -426.453125 C 173.757812 -469.441406 202.835938 -508.09375 235.703125 -542.40625 C 268.578125 -576.726562 303.976562 -604.003906 341.90625 -624.234375 C 379.84375 -644.460938 419.039062 -654.578125 459.5 -654.578125 C 494.90625 -654.578125 522 -645.546875 540.78125 -627.484375 C 559.5625 -609.421875 571.660156 -586.300781 577.078125 -558.125 C 582.503906 -529.945312 581.960938 -500.144531 575.453125 -468.71875 C 568.953125 -437.289062 557.210938 -407.488281 540.234375 -379.3125 C 523.265625 -351.132812 502.492188 -328.015625 477.921875 -309.953125 C 453.359375 -291.890625 425.546875 -282.859375 394.484375 -282.859375 C 376.421875 -282.859375 363.050781 -286.832031 354.375 -294.78125 C 345.707031 -302.726562 340.289062 -312.660156 338.125 -324.578125 C 335.957031 -336.492188 335.59375 -348.410156 337.03125 -360.328125 C 338.476562 -372.253906 340.285156 -381.832031 342.453125 -389.0625 C 345.347656 -397.007812 350.40625 -400.257812 357.625 -398.8125 C 395.914062 -395.195312 427.164062 -399.171875 451.375 -410.734375 C 475.582031 -422.296875 493.285156 -437.828125 504.484375 -457.328125 C 515.679688 -476.835938 521.28125 -496.707031 521.28125 -516.9375 C 521.28125 -537.164062 516.941406 -554.144531 508.265625 -567.875 C 499.597656 -581.601562 486.957031 -588.46875 470.34375 -588.46875 C 441.4375 -588.46875 412.351562 -578.710938 383.09375 -559.203125 C 353.832031 -539.703125 325.835938 -514.054688 299.109375 -482.265625 C 272.378906 -450.472656 248.71875 -415.609375 228.125 -377.671875 C 207.53125 -339.742188 191.632812 -301.632812 180.4375 -263.34375 C 169.238281 -225.050781 164.363281 -190.007812 165.8125 -158.21875 C 167.257812 -126.4375 176.472656 -100.789062 193.453125 -81.28125 C 210.429688 -61.769531 237.34375 -52.015625 274.1875 -52.015625 C 305.25 -52.015625 334.144531 -57.972656 360.875 -69.890625 C 387.613281 -81.816406 411.457031 -96.8125 432.40625 -114.875 C 453.363281 -132.9375 471.785156 -151.898438 487.671875 -171.765625 C 503.566406 -191.640625 516.390625 -209.703125 526.140625 -225.953125 C 535.898438 -242.210938 542.585938 -253.957031 546.203125 -261.1875 C 548.367188 -265.519531 551.984375 -267.6875 557.046875 -267.6875 Z M 557.046875 -267.6875 "/></g></g></g></g></g><g transform="matrix(1, 0, 0, 1, 698, 283)"><g clip-path="url(#50e0ad16ce)"><g fill="#bf5700" fill-opacity="1"><g transform="translate(600.898425, 233.377556)"><g><path d="M -557.046875 267.6875 L -555.953125 268.765625 C -560.285156 268.765625 -563.71875 266.957031 -566.25 263.34375 C -568.78125 259.726562 -569.320312 255.753906 -567.875 251.421875 C -563.539062 237.691406 -555.773438 218.003906 -544.578125 192.359375 C -533.378906 166.710938 -518.566406 139.078125 -500.140625 109.453125 C -481.722656 79.835938 -459.507812 51.484375 -433.5 24.390625 C -407.488281 -2.703125 -376.960938 -24.921875 -341.921875 -42.265625 C -306.878906 -59.609375 -267.320312 -68.28125 -223.25 -68.28125 C -179.175781 -68.28125 -144.316406 -58.164062 -118.671875 -37.9375 C -93.023438 -17.707031 -75.320312 9.566406 -65.5625 43.890625 C -55.8125 78.210938 -52.921875 116.863281 -56.890625 159.84375 C -60.867188 202.832031 -70.804688 247.265625 -86.703125 293.140625 C -102.597656 339.023438 -123.1875 383.460938 -148.46875 426.453125 C -173.757812 469.441406 -202.835938 508.09375 -235.703125 542.40625 C -268.578125 576.726562 -303.976562 604.003906 -341.90625 624.234375 C -379.84375 644.460938 -419.039062 654.578125 -459.5 654.578125 C -494.90625 654.578125 -522 645.546875 -540.78125 627.484375 C -559.5625 609.421875 -571.660156 586.300781 -577.078125 558.125 C -582.503906 529.945312 -581.960938 500.144531 -575.453125 468.71875 C -568.953125 437.289062 -557.210938 407.488281 -540.234375 379.3125 C -523.265625 351.132812 -502.492188 328.015625 -477.921875 309.953125 C -453.359375 291.890625 -425.546875 282.859375 -394.484375 282.859375 C -376.421875 282.859375 -363.050781 286.832031 -354.375 294.78125 C -345.707031 302.726562 -340.289062 312.660156 -338.125 324.578125 C -335.957031 336.492188 -335.59375 348.410156 -337.03125 360.328125 C -338.476562 372.253906 -340.285156 381.832031 -342.453125 389.0625 C -345.347656 397.007812 -350.40625 400.257812 -357.625 398.8125 C -395.914062 395.195312 -427.164062 399.171875 -451.375 410.734375 C -475.582031 422.296875 -493.285156 437.828125 -504.484375 457.328125 C -515.679688 476.835938 -521.28125 496.707031 -521.28125 516.9375 C -521.28125 537.164062 -516.941406 554.144531 -508.265625 567.875 C -499.597656 581.601562 -486.957031 588.46875 -470.34375 588.46875 C -441.4375 588.46875 -412.351562 578.710938 -383.09375 559.203125 C -353.832031 539.703125 -325.835938 514.054688 -299.109375 482.265625 C -272.378906 450.472656 -248.71875 415.609375 -228.125 377.671875 C -207.53125 339.742188 -191.632812 301.632812 -180.4375 263.34375 C -169.238281 225.050781 -164.363281 190.007812 -165.8125 158.21875 C -167.257812 126.4375 -176.472656 100.789062 -193.453125 81.28125 C -210.429688 61.769531 -237.34375 52.015625 -274.1875 52.015625 C -305.25 52.015625 -334.144531 57.972656 -360.875 69.890625 C -387.613281 81.816406 -411.457031 96.8125 -432.40625 114.875 C -453.363281 132.9375 -471.785156 151.898438 -487.671875 171.765625 C -503.566406 191.640625 -516.390625 209.703125 -526.140625 225.953125 C -535.898438 242.210938 -542.585938 253.957031 -546.203125 261.1875 C -548.367188 265.519531 -551.984375 267.6875 -557.046875 267.6875 Z M -557.046875 267.6875 "/></g></g></g></g></g></svg>