<svg xmlns="http://www.w3.org/2000/svg" xmlns:xlink="http://www.w3.org/1999/xlink" width="576" zoomAndPan="magnify" viewBox="0 0 432 287.999989" height="384" preserveAspectRatio="xMidYMid meet" version="1.0"><defs><g/><clipPath id="9ea03a220c"><rect x="0" width="432" y="0" height="130"/></clipPath></defs><g transform="matrix(1, 0, 0, 1, 0, 86)"><g clip-path="url(#9ea03a220c)"><g fill="#bf5700" fill-opacity="1"><g transform="translate(-3.783932, 92.56307)"><g><path d="M 57.1875 -27.484375 L 57.078125 -27.59375 C 57.515625 -27.59375 57.863281 -27.40625 58.125 -27.03125 C 58.382812 -26.664062 58.441406 -26.257812 58.296875 -25.8125 C 57.847656 -24.40625 57.046875 -22.382812 55.890625 -19.75 C 54.742188 -17.113281 53.222656 -14.273438 51.328125 -11.234375 C 49.441406 -8.191406 47.164062 -5.28125 44.5 -2.5 C 41.832031 0.28125 38.695312 2.5625 35.09375 4.34375 C 31.5 6.125 27.441406 7.015625 22.921875 7.015625 C 18.390625 7.015625 14.804688 5.972656 12.171875 3.890625 C 9.546875 1.816406 7.734375 -0.976562 6.734375 -4.5 C 5.734375 -8.03125 5.4375 -12 5.84375 -16.40625 C 6.25 -20.820312 7.265625 -25.382812 8.890625 -30.09375 C 10.523438 -34.800781 12.640625 -39.359375 15.234375 -43.765625 C 17.835938 -48.179688 20.828125 -52.148438 24.203125 -55.671875 C 27.578125 -59.203125 31.207031 -62.003906 35.09375 -64.078125 C 38.988281 -66.148438 43.015625 -67.1875 47.171875 -67.1875 C 50.804688 -67.1875 53.585938 -66.257812 55.515625 -64.40625 C 57.441406 -62.550781 58.679688 -60.175781 59.234375 -57.28125 C 59.796875 -54.394531 59.742188 -51.335938 59.078125 -48.109375 C 58.410156 -44.890625 57.203125 -41.832031 55.453125 -38.9375 C 53.710938 -36.039062 51.582031 -33.664062 49.0625 -31.8125 C 46.539062 -29.957031 43.6875 -29.03125 40.5 -29.03125 C 38.644531 -29.03125 37.269531 -29.4375 36.375 -30.25 C 35.488281 -31.070312 34.929688 -32.09375 34.703125 -33.3125 C 34.484375 -34.539062 34.445312 -35.765625 34.59375 -36.984375 C 34.75 -38.210938 34.9375 -39.195312 35.15625 -39.9375 C 35.445312 -40.75 35.96875 -41.082031 36.71875 -40.9375 C 40.644531 -40.570312 43.847656 -40.976562 46.328125 -42.15625 C 48.816406 -43.34375 50.632812 -44.9375 51.78125 -46.9375 C 52.9375 -48.945312 53.515625 -50.988281 53.515625 -53.0625 C 53.515625 -55.144531 53.066406 -56.890625 52.171875 -58.296875 C 51.285156 -59.703125 49.988281 -60.40625 48.28125 -60.40625 C 45.3125 -60.40625 42.328125 -59.40625 39.328125 -57.40625 C 36.328125 -55.40625 33.453125 -52.769531 30.703125 -49.5 C 27.960938 -46.238281 25.535156 -42.660156 23.421875 -38.765625 C 21.304688 -34.878906 19.671875 -30.96875 18.515625 -27.03125 C 17.367188 -23.101562 16.867188 -19.503906 17.015625 -16.234375 C 17.171875 -12.972656 18.117188 -10.34375 19.859375 -8.34375 C 21.597656 -6.34375 24.359375 -5.34375 28.140625 -5.34375 C 31.335938 -5.34375 34.304688 -5.953125 37.046875 -7.171875 C 39.785156 -8.398438 42.226562 -9.941406 44.375 -11.796875 C 46.53125 -13.648438 48.425781 -15.59375 50.0625 -17.625 C 51.695312 -19.664062 53.015625 -21.519531 54.015625 -23.1875 C 55.015625 -24.863281 55.695312 -26.070312 56.0625 -26.8125 C 56.289062 -27.257812 56.664062 -27.484375 57.1875 -27.484375 Z M 57.1875 -27.484375 "/></g></g></g><g fill="#bf5700" fill-opacity="1"><g transform="translate(47.058366, 92.56307)"><g><path d="M 32.265625 -51.0625 L 32.484375 -50.953125 C 32.628906 -50.648438 32.664062 -50.332031 32.59375 -50 C 32.519531 -49.664062 32.335938 -49.460938 32.046875 -49.390625 C 31.078125 -49.242188 29.664062 -48.171875 27.8125 -46.171875 C 25.957031 -44.171875 23.914062 -41.648438 21.6875 -38.609375 C 19.46875 -35.566406 17.300781 -32.335938 15.1875 -28.921875 C 13.070312 -25.515625 11.234375 -22.289062 9.671875 -19.25 C 8.117188 -16.207031 7.097656 -13.738281 6.609375 -11.84375 C 6.128906 -9.957031 6.410156 -9.015625 7.453125 -9.015625 C 9.453125 -9.015625 11.191406 -9.492188 12.671875 -10.453125 C 14.160156 -11.421875 15.367188 -12.515625 16.296875 -13.734375 C 17.222656 -14.960938 17.910156 -15.984375 18.359375 -16.796875 C 18.722656 -17.390625 19.28125 -17.578125 20.03125 -17.359375 C 20.84375 -17.054688 21.097656 -16.5 20.796875 -15.6875 C 20.503906 -14.71875 19.816406 -13.378906 18.734375 -11.671875 C 17.660156 -9.972656 16.328125 -8.234375 14.734375 -6.453125 C 13.140625 -4.671875 11.304688 -3.148438 9.234375 -1.890625 C 7.160156 -0.628906 4.9375 0 2.5625 0 C -0.1875 0 -1.894531 -0.976562 -2.5625 -2.9375 C -3.226562 -4.90625 -3.113281 -7.519531 -2.21875 -10.78125 C -1.332031 -14.050781 0.0703125 -17.632812 2 -21.53125 C 3.925781 -25.425781 6.128906 -29.300781 8.609375 -33.15625 C 11.097656 -37.007812 13.582031 -40.566406 16.0625 -43.828125 C 18.550781 -47.097656 20.796875 -49.710938 22.796875 -51.671875 C 24.804688 -53.640625 26.289062 -54.625 27.25 -54.625 C 27.84375 -54.625 28.695312 -54.289062 29.8125 -53.625 C 30.925781 -52.957031 31.742188 -52.101562 32.265625 -51.0625 Z M 32.265625 -51.0625 "/></g></g></g><g fill="#bf5700" fill-opacity="1"><g transform="translate(65.526235, 92.56307)"><g><path d="M 32.265625 -17.578125 L 32.484375 -17.578125 C 32.859375 -17.503906 33.171875 -17.300781 33.421875 -16.96875 C 33.679688 -16.632812 33.738281 -16.28125 33.59375 -15.90625 C 33.070312 -14.425781 32.125 -12.8125 30.75 -11.0625 C 29.382812 -9.320312 27.8125 -7.75 26.03125 -6.34375 C 24.25 -4.9375 22.429688 -3.914062 20.578125 -3.28125 C 18.722656 -2.65625 17.054688 -2.710938 15.578125 -3.453125 C 14.171875 -2.484375 12.707031 -1.738281 11.1875 -1.21875 C 9.664062 -0.695312 8.050781 -0.4375 6.34375 -0.4375 C 3.226562 -0.4375 0.96875 -1.269531 -0.4375 -2.9375 C -1.851562 -4.613281 -2.578125 -6.765625 -2.609375 -9.390625 C -2.648438 -12.023438 -2.171875 -14.804688 -1.171875 -17.734375 C -0.171875 -20.671875 1.253906 -23.453125 3.109375 -26.078125 C 4.960938 -28.710938 7.09375 -30.863281 9.5 -32.53125 C 11.914062 -34.207031 14.421875 -35.046875 17.015625 -35.046875 C 18.203125 -35.046875 19.203125 -34.785156 20.015625 -34.265625 C 20.835938 -33.742188 21.320312 -33.113281 21.46875 -32.375 C 22.4375 -32.300781 23.53125 -31.875 24.75 -31.09375 C 25.976562 -30.3125 26.59375 -28.625 26.59375 -26.03125 C 26.59375 -22.988281 26.070312 -19.925781 25.03125 -16.84375 C 23.988281 -13.769531 22.539062 -11.007812 20.6875 -8.5625 C 22.394531 -8.488281 23.9375 -9.007812 25.3125 -10.125 C 26.6875 -11.238281 27.890625 -12.5 28.921875 -13.90625 C 29.960938 -15.3125 30.707031 -16.347656 31.15625 -17.015625 C 31.375 -17.535156 31.742188 -17.722656 32.265625 -17.578125 Z M 17.359375 -13.796875 L 17.46875 -13.90625 C 17.914062 -13.613281 18.210938 -13.207031 18.359375 -12.6875 C 19.765625 -14.613281 20.671875 -16.6875 21.078125 -18.90625 C 21.484375 -21.132812 21.445312 -23.082031 20.96875 -24.75 C 20.488281 -26.414062 19.503906 -27.289062 18.015625 -27.375 C 16.316406 -27.375 14.707031 -26.703125 13.1875 -25.359375 C 11.664062 -24.023438 10.347656 -22.394531 9.234375 -20.46875 C 8.117188 -18.539062 7.320312 -16.59375 6.84375 -14.625 C 6.363281 -12.664062 6.289062 -11.015625 6.625 -9.671875 C 6.957031 -8.335938 7.789062 -7.671875 9.125 -7.671875 C 10.082031 -7.671875 11.007812 -7.785156 11.90625 -8.015625 C 11.457031 -9.492188 11.507812 -10.769531 12.0625 -11.84375 C 12.625 -12.925781 13.421875 -13.671875 14.453125 -14.078125 C 15.492188 -14.484375 16.460938 -14.390625 17.359375 -13.796875 Z M 17.359375 -13.796875 "/></g></g></g><g fill="#bf5700" fill-opacity="1"><g transform="translate(96.788109, 92.56307)"><g><path d="M 35.9375 -16.90625 C 36.457031 -17.644531 37.085938 -17.773438 37.828125 -17.296875 C 38.566406 -16.816406 38.710938 -16.171875 38.265625 -15.359375 C 37.234375 -13.578125 36.046875 -11.535156 34.703125 -9.234375 C 33.367188 -6.929688 31.679688 -4.867188 29.640625 -3.046875 C 27.609375 -1.234375 25.070312 -0.179688 22.03125 0.109375 C 19.65625 0.328125 17.984375 -0.335938 17.015625 -1.890625 C 16.054688 -3.453125 15.578125 -5.34375 15.578125 -7.5625 C 14.242188 -5.707031 12.648438 -4.035156 10.796875 -2.546875 C 8.941406 -1.066406 6.675781 -0.179688 4 0.109375 C 1.851562 0.328125 0.28125 -0.207031 -0.71875 -1.5 C -1.71875 -2.800781 -2.238281 -4.488281 -2.28125 -6.5625 C -2.320312 -8.632812 -2.082031 -10.710938 -1.5625 -12.796875 C -1.039062 -14.722656 -0.132812 -16.945312 1.15625 -19.46875 C 2.457031 -21.988281 3.867188 -24.414062 5.390625 -26.75 C 6.910156 -29.09375 8.28125 -31.039062 9.5 -32.59375 C 10.726562 -34.15625 11.492188 -34.972656 11.796875 -35.046875 C 12.085938 -35.191406 12.4375 -35.28125 12.84375 -35.3125 C 13.257812 -35.351562 13.890625 -35.132812 14.734375 -34.65625 C 15.585938 -34.175781 16.832031 -33.226562 18.46875 -31.8125 C 18.6875 -31.664062 18.773438 -31.460938 18.734375 -31.203125 C 18.703125 -30.941406 18.578125 -30.738281 18.359375 -30.59375 C 17.023438 -29.851562 15.6875 -28.664062 14.34375 -27.03125 C 13.007812 -25.40625 11.785156 -23.570312 10.671875 -21.53125 C 9.566406 -19.488281 8.660156 -17.503906 7.953125 -15.578125 C 7.242188 -13.648438 6.832031 -12.070312 6.71875 -10.84375 C 6.613281 -9.625 6.929688 -9.015625 7.671875 -9.015625 C 9.597656 -9.015625 11.359375 -9.734375 12.953125 -11.171875 C 14.554688 -12.617188 16.132812 -14.421875 17.6875 -16.578125 C 18.65625 -18.878906 19.804688 -21.082031 21.140625 -23.1875 C 22.472656 -25.300781 23.710938 -27.0625 24.859375 -28.46875 C 26.015625 -29.882812 26.738281 -30.59375 27.03125 -30.59375 C 27.332031 -30.738281 27.6875 -30.828125 28.09375 -30.859375 C 28.5 -30.898438 29.128906 -30.679688 29.984375 -30.203125 C 30.835938 -29.722656 32.078125 -28.78125 33.703125 -27.375 C 33.929688 -27.21875 34.023438 -27.007812 33.984375 -26.75 C 33.953125 -26.488281 33.820312 -26.285156 33.59375 -26.140625 C 31.882812 -25.253906 30.34375 -23.882812 28.96875 -22.03125 C 27.601562 -20.175781 26.507812 -18.242188 25.6875 -16.234375 C 24.875 -14.234375 24.429688 -12.53125 24.359375 -11.125 C 24.285156 -9.71875 24.695312 -9.015625 25.59375 -9.015625 C 27.59375 -9.015625 29.40625 -9.753906 31.03125 -11.234375 C 32.664062 -12.722656 34.300781 -14.613281 35.9375 -16.90625 Z M 35.9375 -16.90625 "/></g></g></g><g fill="#bf5700" fill-opacity="1"><g transform="translate(132.722603, 92.56307)"><g><path d="M 50.84375 -51.0625 L 51.171875 -50.953125 C 51.316406 -50.648438 51.351562 -50.332031 51.28125 -50 C 51.207031 -49.664062 51.023438 -49.460938 50.734375 -49.390625 C 49.765625 -49.242188 48.351562 -48.171875 46.5 -46.171875 C 44.644531 -44.171875 42.601562 -41.648438 40.375 -38.609375 C 38.15625 -35.566406 35.988281 -32.335938 33.875 -28.921875 C 31.757812 -25.515625 29.921875 -22.289062 28.359375 -19.25 C 26.804688 -16.207031 25.789062 -13.738281 25.3125 -11.84375 C 24.832031 -9.957031 25.109375 -9.015625 26.140625 -9.015625 C 28.140625 -9.015625 29.863281 -9.492188 31.3125 -10.453125 C 32.757812 -11.421875 33.945312 -12.515625 34.875 -13.734375 C 35.800781 -14.960938 36.488281 -15.984375 36.9375 -16.796875 C 37.300781 -17.390625 37.859375 -17.578125 38.609375 -17.359375 C 39.421875 -17.054688 39.675781 -16.5 39.375 -15.6875 C 39.082031 -14.71875 38.414062 -13.378906 37.375 -11.671875 C 36.34375 -9.972656 35.007812 -8.234375 33.375 -6.453125 C 31.738281 -4.671875 29.898438 -3.148438 27.859375 -1.890625 C 25.828125 -0.628906 23.625 0 21.25 0 C 18.875 0 17.296875 -0.796875 16.515625 -2.390625 C 15.742188 -3.984375 15.578125 -6.039062 16.015625 -8.5625 C 15.273438 -7.675781 14.21875 -6.5625 12.84375 -5.21875 C 11.476562 -3.882812 9.90625 -2.695312 8.125 -1.65625 C 6.34375 -0.625 4.453125 -0.109375 2.453125 -0.109375 C 0.296875 -0.109375 -1.128906 -0.941406 -1.828125 -2.609375 C -2.535156 -4.285156 -2.6875 -6.457031 -2.28125 -9.125 C -1.875 -11.789062 -1.039062 -14.585938 0.21875 -17.515625 C 1.476562 -20.453125 3.015625 -23.253906 4.828125 -25.921875 C 6.648438 -28.585938 8.65625 -30.753906 10.84375 -32.421875 C 13.03125 -34.097656 15.203125 -34.9375 17.359375 -34.9375 C 19.359375 -34.9375 21.117188 -34.429688 22.640625 -33.421875 C 24.160156 -32.421875 25.101562 -31.40625 25.46875 -30.375 C 28 -34.601562 30.632812 -38.550781 33.375 -42.21875 C 36.113281 -45.882812 38.613281 -48.867188 40.875 -51.171875 C 43.144531 -53.472656 44.796875 -54.625 45.828125 -54.625 C 46.421875 -54.625 47.273438 -54.289062 48.390625 -53.625 C 49.503906 -52.957031 50.320312 -52.101562 50.84375 -51.0625 Z M 22.25 -24.03125 C 22.25 -24.914062 22.082031 -25.785156 21.75 -26.640625 C 21.414062 -27.492188 20.617188 -27.921875 19.359375 -27.921875 C 17.867188 -27.921875 16.328125 -27.289062 14.734375 -26.03125 C 13.140625 -24.769531 11.691406 -23.210938 10.390625 -21.359375 C 9.097656 -19.503906 8.117188 -17.648438 7.453125 -15.796875 C 6.785156 -13.941406 6.597656 -12.382812 6.890625 -11.125 C 7.191406 -9.863281 8.160156 -9.234375 9.796875 -9.234375 C 10.898438 -9.234375 12.007812 -9.601562 13.125 -10.34375 C 14.238281 -11.082031 15.238281 -11.859375 16.125 -12.671875 C 17.019531 -13.492188 17.578125 -14.050781 17.796875 -14.34375 C 18.390625 -15.832031 19.054688 -17.410156 19.796875 -19.078125 C 20.546875 -20.742188 21.363281 -22.394531 22.25 -24.03125 Z M 22.25 -24.03125 "/></g></g></g><g fill="#bf5700" fill-opacity="1"><g transform="translate(169.658359, 92.56307)"><g/></g></g><g fill="#bf5700" fill-opacity="1"><g transform="translate(196.915192, 92.56307)"><g><path d="M 57.1875 -27.484375 L 57.078125 -27.59375 C 57.515625 -27.59375 57.863281 -27.40625 58.125 -27.03125 C 58.382812 -26.664062 58.441406 -26.257812 58.296875 -25.8125 C 57.847656 -24.40625 57.046875 -22.382812 55.890625 -19.75 C 54.742188 -17.113281 53.222656 -14.273438 51.328125 -11.234375 C 49.441406 -8.191406 47.164062 -5.28125 44.5 -2.5 C 41.832031 0.28125 38.695312 2.5625 35.09375 4.34375 C 31.5 6.125 27.441406 7.015625 22.921875 7.015625 C 18.390625 7.015625 14.804688 5.972656 12.171875 3.890625 C 9.546875 1.816406 7.734375 -0.976562 6.734375 -4.5 C 5.734375 -8.03125 5.4375 -12 5.84375 -16.40625 C 6.25 -20.820312 7.265625 -25.382812 8.890625 -30.09375 C 10.523438 -34.800781 12.640625 -39.359375 15.234375 -43.765625 C 17.835938 -48.179688 20.828125 -52.148438 24.203125 -55.671875 C 27.578125 -59.203125 31.207031 -62.003906 35.09375 -64.078125 C 38.988281 -66.148438 43.015625 -67.1875 47.171875 -67.1875 C 50.804688 -67.1875 53.585938 -66.257812 55.515625 -64.40625 C 57.441406 -62.550781 58.679688 -60.175781 59.234375 -57.28125 C 59.796875 -54.394531 59.742188 -51.335938 59.078125 -48.109375 C 58.410156 -44.890625 57.203125 -41.832031 55.453125 -38.9375 C 53.710938 -36.039062 51.582031 -33.664062 49.0625 -31.8125 C 46.539062 -29.957031 43.6875 -29.03125 40.5 -29.03125 C 38.644531 -29.03125 37.269531 -29.4375 36.375 -30.25 C 35.488281 -31.070312 34.929688 -32.09375 34.703125 -33.3125 C 34.484375 -34.539062 34.445312 -35.765625 34.59375 -36.984375 C 34.75 -38.210938 34.9375 -39.195312 35.15625 -39.9375 C 35.445312 -40.75 35.96875 -41.082031 36.71875 -40.9375 C 40.644531 -40.570312 43.847656 -40.976562 46.328125 -42.15625 C 48.816406 -43.34375 50.632812 -44.9375 51.78125 -46.9375 C 52.9375 -48.945312 53.515625 -50.988281 53.515625 -53.0625 C 53.515625 -55.144531 53.066406 -56.890625 52.171875 -58.296875 C 51.285156 -59.703125 49.988281 -60.40625 48.28125 -60.40625 C 45.3125 -60.40625 42.328125 -59.40625 39.328125 -57.40625 C 36.328125 -55.40625 33.453125 -52.769531 30.703125 -49.5 C 27.960938 -46.238281 25.535156 -42.660156 23.421875 -38.765625 C 21.304688 -34.878906 19.671875 -30.96875 18.515625 -27.03125 C 17.367188 -23.101562 16.867188 -19.503906 17.015625 -16.234375 C 17.171875 -12.972656 18.117188 -10.34375 19.859375 -8.34375 C 21.597656 -6.34375 24.359375 -5.34375 28.140625 -5.34375 C 31.335938 -5.34375 34.304688 -5.953125 37.046875 -7.171875 C 39.785156 -8.398438 42.226562 -9.941406 44.375 -11.796875 C 46.53125 -13.648438 48.425781 -15.59375 50.0625 -17.625 C 51.695312 -19.664062 53.015625 -21.519531 54.015625 -23.1875 C 55.015625 -24.863281 55.695312 -26.070312 56.0625 -26.8125 C 56.289062 -27.257812 56.664062 -27.484375 57.1875 -27.484375 Z M 57.1875 -27.484375 "/></g></g></g><g fill="#bf5700" fill-opacity="1"><g transform="translate(247.757472, 92.56307)"><g><path d="M 32.265625 -17.578125 L 32.484375 -17.578125 C 32.859375 -17.503906 33.171875 -17.300781 33.421875 -16.96875 C 33.679688 -16.632812 33.738281 -16.28125 33.59375 -15.90625 C 33.070312 -14.425781 32.125 -12.8125 30.75 -11.0625 C 29.382812 -9.320312 27.8125 -7.75 26.03125 -6.34375 C 24.25 -4.9375 22.429688 -3.914062 20.578125 -3.28125 C 18.722656 -2.65625 17.054688 -2.710938 15.578125 -3.453125 C 14.171875 -2.484375 12.707031 -1.738281 11.1875 -1.21875 C 9.664062 -0.695312 8.050781 -0.4375 6.34375 -0.4375 C 3.226562 -0.4375 0.96875 -1.269531 -0.4375 -2.9375 C -1.851562 -4.613281 -2.578125 -6.765625 -2.609375 -9.390625 C -2.648438 -12.023438 -2.171875 -14.804688 -1.171875 -17.734375 C -0.171875 -20.671875 1.253906 -23.453125 3.109375 -26.078125 C 4.960938 -28.710938 7.09375 -30.863281 9.5 -32.53125 C 11.914062 -34.207031 14.421875 -35.046875 17.015625 -35.046875 C 18.203125 -35.046875 19.203125 -34.785156 20.015625 -34.265625 C 20.835938 -33.742188 21.320312 -33.113281 21.46875 -32.375 C 22.4375 -32.300781 23.53125 -31.875 24.75 -31.09375 C 25.976562 -30.3125 26.59375 -28.625 26.59375 -26.03125 C 26.59375 -22.988281 26.070312 -19.925781 25.03125 -16.84375 C 23.988281 -13.769531 22.539062 -11.007812 20.6875 -8.5625 C 22.394531 -8.488281 23.9375 -9.007812 25.3125 -10.125 C 26.6875 -11.238281 27.890625 -12.5 28.921875 -13.90625 C 29.960938 -15.3125 30.707031 -16.347656 31.15625 -17.015625 C 31.375 -17.535156 31.742188 -17.722656 32.265625 -17.578125 Z M 17.359375 -13.796875 L 17.46875 -13.90625 C 17.914062 -13.613281 18.210938 -13.207031 18.359375 -12.6875 C 19.765625 -14.613281 20.671875 -16.6875 21.078125 -18.90625 C 21.484375 -21.132812 21.445312 -23.082031 20.96875 -24.75 C 20.488281 -26.414062 19.503906 -27.289062 18.015625 -27.375 C 16.316406 -27.375 14.707031 -26.703125 13.1875 -25.359375 C 11.664062 -24.023438 10.347656 -22.394531 9.234375 -20.46875 C 8.117188 -18.539062 7.320312 -16.59375 6.84375 -14.625 C 6.363281 -12.664062 6.289062 -11.015625 6.625 -9.671875 C 6.957031 -8.335938 7.789062 -7.671875 9.125 -7.671875 C 10.082031 -7.671875 11.007812 -7.785156 11.90625 -8.015625 C 11.457031 -9.492188 11.507812 -10.769531 12.0625 -11.84375 C 12.625 -12.925781 13.421875 -13.671875 14.453125 -14.078125 C 15.492188 -14.484375 16.460938 -14.390625 17.359375 -13.796875 Z M 17.359375 -13.796875 "/></g></g></g><g fill="#bf5700" fill-opacity="1"><g transform="translate(279.019355, 92.56307)"><g><path d="M 51.84375 -17.796875 C 52.4375 -17.796875 52.785156 -17.5 52.890625 -16.90625 C 53.003906 -16.3125 52.878906 -15.832031 52.515625 -15.46875 C 51.691406 -14.5 50.664062 -13.4375 49.4375 -12.28125 C 48.21875 -11.132812 46.957031 -10.132812 45.65625 -9.28125 C 44.363281 -8.4375 43.160156 -8.015625 42.046875 -8.015625 C 40.492188 -8.015625 39.347656 -8.863281 38.609375 -10.5625 C 35.492188 -6.851562 32.335938 -4.144531 29.140625 -2.4375 C 25.953125 -0.738281 23.507812 0.109375 21.8125 0.109375 C 19.507812 0.109375 17.875 -0.59375 16.90625 -2 C 15.945312 -3.40625 15.46875 -5.148438 15.46875 -7.234375 C 14.132812 -5.378906 12.539062 -3.742188 10.6875 -2.328125 C 8.832031 -0.921875 6.601562 -0.0703125 4 0.21875 C 1.851562 0.445312 0.28125 -0.0859375 -0.71875 -1.390625 C -1.71875 -2.691406 -2.238281 -4.378906 -2.28125 -6.453125 C -2.320312 -8.523438 -2.082031 -10.601562 -1.5625 -12.6875 C -1.039062 -14.613281 -0.132812 -16.835938 1.15625 -19.359375 C 2.457031 -21.878906 3.867188 -24.304688 5.390625 -26.640625 C 6.910156 -28.984375 8.28125 -30.929688 9.5 -32.484375 C 10.726562 -34.046875 11.492188 -34.863281 11.796875 -34.9375 C 12.085938 -35.082031 12.4375 -35.171875 12.84375 -35.203125 C 13.257812 -35.242188 13.890625 -35.019531 14.734375 -34.53125 C 15.585938 -34.050781 16.832031 -33.109375 18.46875 -31.703125 C 18.6875 -31.554688 18.773438 -31.351562 18.734375 -31.09375 C 18.703125 -30.832031 18.578125 -30.628906 18.359375 -30.484375 C 17.023438 -29.742188 15.6875 -28.554688 14.34375 -26.921875 C 13.007812 -25.285156 11.785156 -23.445312 10.671875 -21.40625 C 9.566406 -19.375 8.660156 -17.394531 7.953125 -15.46875 C 7.242188 -13.539062 6.832031 -11.960938 6.71875 -10.734375 C 6.613281 -9.515625 6.929688 -8.90625 7.671875 -8.90625 C 9.597656 -8.90625 11.320312 -9.550781 12.84375 -10.84375 C 14.363281 -12.144531 15.867188 -13.796875 17.359375 -15.796875 C 18.316406 -18.242188 19.535156 -20.691406 21.015625 -23.140625 C 22.503906 -25.585938 23.878906 -27.625 25.140625 -29.25 C 26.398438 -30.882812 27.21875 -31.738281 27.59375 -31.8125 C 27.957031 -32.039062 28.453125 -32.113281 29.078125 -32.03125 C 29.710938 -31.957031 30.957031 -31.179688 32.8125 -29.703125 C 33.332031 -29.328125 33.59375 -28.804688 33.59375 -28.140625 C 33.59375 -27.472656 33.332031 -26.957031 32.8125 -26.59375 C 31.257812 -25.40625 29.851562 -23.847656 28.59375 -21.921875 C 27.332031 -19.992188 26.328125 -18.046875 25.578125 -16.078125 C 24.835938 -14.109375 24.445312 -12.457031 24.40625 -11.125 C 24.375 -9.789062 24.769531 -9.125 25.59375 -9.125 C 27.59375 -9.125 29.816406 -9.804688 32.265625 -11.171875 C 34.710938 -12.546875 36.640625 -14.160156 38.046875 -16.015625 C 38.046875 -17.503906 38.234375 -18.988281 38.609375 -20.46875 C 39.421875 -23.65625 40.640625 -26.378906 42.265625 -28.640625 C 43.898438 -30.910156 45.460938 -32.046875 46.953125 -32.046875 C 48.210938 -32.046875 48.726562 -31.132812 48.5 -29.3125 C 48.28125 -27.5 47.539062 -25.21875 46.28125 -22.46875 C 45.019531 -19.726562 43.390625 -16.945312 41.390625 -14.125 C 42.421875 -13.382812 43.566406 -13.234375 44.828125 -13.671875 C 46.085938 -14.117188 47.273438 -14.75 48.390625 -15.5625 C 49.503906 -16.382812 50.285156 -16.984375 50.734375 -17.359375 C 50.953125 -17.578125 51.320312 -17.722656 51.84375 -17.796875 Z M 51.84375 -17.796875 "/></g></g></g><g fill="#bf5700" fill-opacity="1"><g transform="translate(329.750377, 92.56307)"><g><path d="M 29.8125 -35.046875 L 29.484375 -34.828125 C 31.410156 -34.828125 32.632812 -33.988281 33.15625 -32.3125 C 33.675781 -30.644531 33.65625 -28.476562 33.09375 -25.8125 C 32.539062 -23.144531 31.59375 -20.34375 30.25 -17.40625 C 28.914062 -14.476562 27.34375 -11.675781 25.53125 -9 C 23.71875 -6.332031 21.84375 -4.164062 19.90625 -2.5 C 17.976562 -0.832031 16.125 0 14.34375 0 C 12.050781 0 10.421875 -0.390625 9.453125 -1.171875 C 8.492188 -1.953125 7.957031 -2.859375 7.84375 -3.890625 C 7.726562 -4.929688 7.707031 -5.75 7.78125 -6.34375 C 7.9375 -6.863281 8.234375 -7.125 8.671875 -7.125 C 11.046875 -7.125 13.21875 -7.804688 15.1875 -9.171875 C 17.15625 -10.546875 18.84375 -12.210938 20.25 -14.171875 C 21.65625 -16.140625 22.785156 -18.125 23.640625 -20.125 C 24.492188 -22.132812 25.03125 -23.820312 25.25 -25.1875 C 25.476562 -26.5625 25.367188 -27.25 24.921875 -27.25 C 23.285156 -27.25 21.519531 -26.429688 19.625 -24.796875 C 17.738281 -23.171875 15.832031 -21.148438 13.90625 -18.734375 C 11.976562 -16.328125 10.195312 -13.84375 8.5625 -11.28125 C 6.9375 -8.726562 5.566406 -6.503906 4.453125 -4.609375 C 3.335938 -2.722656 2.632812 -1.519531 2.34375 -1 L 2.34375 -0.671875 C 2.113281 -0.367188 1.8125 -0.253906 1.4375 -0.328125 C 1.070312 -0.398438 0.738281 -0.515625 0.4375 -0.671875 C -0.738281 -1.265625 -1.769531 -2.097656 -2.65625 -3.171875 C -3.550781 -4.242188 -4.035156 -5.445312 -4.109375 -6.78125 C -4.109375 -7.53125 -4 -8.238281 -3.78125 -8.90625 C -3.5625 -9.570312 -3.300781 -10.238281 -3 -10.90625 C -1.21875 -15.132812 0.597656 -18.785156 2.453125 -21.859375 C 4.304688 -24.941406 6.492188 -28.410156 9.015625 -32.265625 C 11.460938 -36.191406 13.984375 -39.859375 16.578125 -43.265625 C 19.171875 -46.679688 21.523438 -49.425781 23.640625 -51.5 C 25.753906 -53.582031 27.289062 -54.625 28.25 -54.625 C 28.84375 -54.625 29.695312 -54.289062 30.8125 -53.625 C 31.925781 -52.957031 32.742188 -52.101562 33.265625 -51.0625 C 33.410156 -50.769531 33.445312 -50.457031 33.375 -50.125 C 33.300781 -49.789062 33.113281 -49.582031 32.8125 -49.5 C 32 -49.425781 30.832031 -48.628906 29.3125 -47.109375 C 27.789062 -45.585938 26.117188 -43.625 24.296875 -41.21875 C 22.484375 -38.8125 20.628906 -36.195312 18.734375 -33.375 C 16.847656 -30.550781 15.09375 -27.734375 13.46875 -24.921875 L 9.796875 -18.578125 C 11.722656 -21.097656 13.851562 -23.617188 16.1875 -26.140625 C 18.519531 -28.660156 20.890625 -30.773438 23.296875 -32.484375 C 25.710938 -34.191406 27.882812 -35.046875 29.8125 -35.046875 Z M 29.8125 -35.046875 "/></g></g></g><g fill="#bf5700" fill-opacity="1"><g transform="translate(363.348592, 92.56307)"><g><path d="M 32.265625 -17.578125 L 32.484375 -17.578125 C 32.859375 -17.503906 33.171875 -17.300781 33.421875 -16.96875 C 33.679688 -16.632812 33.738281 -16.28125 33.59375 -15.90625 C 33.070312 -14.425781 32.125 -12.8125 30.75 -11.0625 C 29.382812 -9.320312 27.8125 -7.75 26.03125 -6.34375 C 24.25 -4.9375 22.429688 -3.914062 20.578125 -3.28125 C 18.722656 -2.65625 17.054688 -2.710938 15.578125 -3.453125 C 14.171875 -2.484375 12.707031 -1.738281 11.1875 -1.21875 C 9.664062 -0.695312 8.050781 -0.4375 6.34375 -0.4375 C 3.226562 -0.4375 0.96875 -1.269531 -0.4375 -2.9375 C -1.851562 -4.613281 -2.578125 -6.765625 -2.609375 -9.390625 C -2.648438 -12.023438 -2.171875 -14.804688 -1.171875 -17.734375 C -0.171875 -20.671875 1.253906 -23.453125 3.109375 -26.078125 C 4.960938 -28.710938 7.09375 -30.863281 9.5 -32.53125 C 11.914062 -34.207031 14.421875 -35.046875 17.015625 -35.046875 C 18.203125 -35.046875 19.203125 -34.785156 20.015625 -34.265625 C 20.835938 -33.742188 21.320312 -33.113281 21.46875 -32.375 C 22.4375 -32.300781 23.53125 -31.875 24.75 -31.09375 C 25.976562 -30.3125 26.59375 -28.625 26.59375 -26.03125 C 26.59375 -22.988281 26.070312 -19.925781 25.03125 -16.84375 C 23.988281 -13.769531 22.539062 -11.007812 20.6875 -8.5625 C 22.394531 -8.488281 23.9375 -9.007812 25.3125 -10.125 C 26.6875 -11.238281 27.890625 -12.5 28.921875 -13.90625 C 29.960938 -15.3125 30.707031 -16.347656 31.15625 -17.015625 C 31.375 -17.535156 31.742188 -17.722656 32.265625 -17.578125 Z M 17.359375 -13.796875 L 17.46875 -13.90625 C 17.914062 -13.613281 18.210938 -13.207031 18.359375 -12.6875 C 19.765625 -14.613281 20.671875 -16.6875 21.078125 -18.90625 C 21.484375 -21.132812 21.445312 -23.082031 20.96875 -24.75 C 20.488281 -26.414062 19.503906 -27.289062 18.015625 -27.375 C 16.316406 -27.375 14.707031 -26.703125 13.1875 -25.359375 C 11.664062 -24.023438 10.347656 -22.394531 9.234375 -20.46875 C 8.117188 -18.539062 7.320312 -16.59375 6.84375 -14.625 C 6.363281 -12.664062 6.289062 -11.015625 6.625 -9.671875 C 6.957031 -8.335938 7.789062 -7.671875 9.125 -7.671875 C 10.082031 -7.671875 11.007812 -7.785156 11.90625 -8.015625 C 11.457031 -9.492188 11.507812 -10.769531 12.0625 -11.84375 C 12.625 -12.925781 13.421875 -13.671875 14.453125 -14.078125 C 15.492188 -14.484375 16.460938 -14.390625 17.359375 -13.796875 Z M 17.359375 -13.796875 "/></g></g></g><g fill="#bf5700" fill-opacity="1"><g transform="translate(394.610475, 92.56307)"><g><path d="M 35.265625 -17.359375 L 35.71875 -17.46875 C 36.300781 -17.46875 36.722656 -17.171875 36.984375 -16.578125 C 37.242188 -15.984375 37.300781 -15.425781 37.15625 -14.90625 C 36.78125 -13.351562 35.867188 -11.535156 34.421875 -9.453125 C 32.984375 -7.378906 31.148438 -5.285156 28.921875 -3.171875 C 26.703125 -1.054688 24.203125 0.90625 21.421875 2.71875 C 18.640625 4.539062 15.726562 5.972656 12.6875 7.015625 C 12.019531 8.191406 11.332031 9.351562 10.625 10.5 C 9.914062 11.65625 9.191406 12.828125 8.453125 14.015625 C 6.597656 17.054688 4.59375 20.078125 2.4375 23.078125 C 0.289062 26.085938 -2.1875 28.738281 -5 31.03125 C -6.414062 32.21875 -8.140625 33.296875 -10.171875 34.265625 C -12.210938 35.234375 -14.234375 35.71875 -16.234375 35.71875 C -18.242188 35.71875 -19.988281 34.863281 -21.46875 33.15625 C -22.65625 31.664062 -23.320312 29.921875 -23.46875 27.921875 C -23.625 25.921875 -23.441406 24.03125 -22.921875 22.25 C -21.359375 16.832031 -18.390625 12.457031 -14.015625 9.125 C -12.535156 8.007812 -11.085938 7.15625 -9.671875 6.5625 C -7.523438 5.675781 -5.359375 5.15625 -3.171875 5 C -0.984375 4.851562 1.222656 4.632812 3.453125 4.34375 L 5.125 4 L 8.125 -0.5625 C 6.707031 0.1875 5.222656 0.597656 3.671875 0.671875 C 1.515625 0.890625 -0.0625 0.351562 -1.0625 -0.9375 C -2.0625 -2.238281 -2.578125 -3.925781 -2.609375 -6 C -2.648438 -8.082031 -2.410156 -10.160156 -1.890625 -12.234375 C -1.367188 -14.160156 -0.460938 -16.382812 0.828125 -18.90625 C 2.128906 -21.425781 3.539062 -23.851562 5.0625 -26.1875 C 6.582031 -28.53125 7.953125 -30.476562 9.171875 -32.03125 C 10.398438 -33.59375 11.160156 -34.410156 11.453125 -34.484375 C 11.753906 -34.628906 12.109375 -34.722656 12.515625 -34.765625 C 12.921875 -34.804688 13.550781 -34.582031 14.40625 -34.09375 C 15.257812 -33.613281 16.503906 -32.671875 18.140625 -31.265625 C 18.359375 -31.109375 18.445312 -30.898438 18.40625 -30.640625 C 18.375 -30.390625 18.242188 -30.1875 18.015625 -30.03125 C 16.679688 -29.289062 15.347656 -28.101562 14.015625 -26.46875 C 12.679688 -24.84375 11.457031 -23.007812 10.34375 -20.96875 C 9.226562 -18.925781 8.316406 -16.941406 7.609375 -15.015625 C 6.910156 -13.085938 6.503906 -11.507812 6.390625 -10.28125 C 6.285156 -9.0625 6.601562 -8.453125 7.34375 -8.453125 C 9.34375 -8.453125 11.15625 -9.191406 12.78125 -10.671875 C 14.414062 -12.160156 16.050781 -14.054688 17.6875 -16.359375 L 19.46875 -19.46875 L 20.796875 -21.8125 C 22.054688 -23.957031 23.335938 -25.992188 24.640625 -27.921875 C 25.941406 -29.847656 27.09375 -31.457031 28.09375 -32.75 C 29.09375 -34.050781 29.703125 -34.703125 29.921875 -34.703125 C 30.078125 -34.703125 30.359375 -34.722656 30.765625 -34.765625 C 31.171875 -34.804688 31.835938 -34.640625 32.765625 -34.265625 C 33.691406 -33.890625 34.96875 -33 36.59375 -31.59375 C 36.820312 -31.445312 36.914062 -31.242188 36.875 -30.984375 C 36.84375 -30.722656 36.710938 -30.519531 36.484375 -30.375 C 35.597656 -29.925781 34.578125 -28.957031 33.421875 -27.46875 C 32.273438 -25.988281 31.109375 -24.300781 29.921875 -22.40625 C 28.734375 -20.519531 27.601562 -18.648438 26.53125 -16.796875 C 25.457031 -14.941406 24.515625 -13.347656 23.703125 -12.015625 L 21.6875 -8.671875 C 20.800781 -7.265625 19.929688 -5.835938 19.078125 -4.390625 C 18.222656 -2.941406 17.390625 -1.476562 16.578125 0 L 16.90625 -0.328125 C 19.0625 -1.367188 21.117188 -2.554688 23.078125 -3.890625 C 25.046875 -5.222656 26.882812 -6.707031 28.59375 -8.34375 C 29.632812 -9.382812 30.597656 -10.5 31.484375 -11.6875 C 32.367188 -12.875 33.070312 -14.316406 33.59375 -16.015625 C 33.820312 -16.910156 34.378906 -17.359375 35.265625 -17.359375 Z M -12.015625 23.8125 C -10.609375 23.65625 -8.734375 22.28125 -6.390625 19.6875 C -4.054688 17.09375 -1.519531 13.832031 1.21875 9.90625 C -3.894531 11.457031 -7.726562 13.328125 -10.28125 15.515625 C -12.84375 17.703125 -14.234375 19.628906 -14.453125 21.296875 C -14.679688 22.972656 -13.867188 23.8125 -12.015625 23.8125 Z M -12.015625 23.8125 "/></g></g></g></g></g></svg>